<svg width="492" height="492" viewBox="0 0 492 492" xmlns="http://www.w3.org/2000/svg">
  <rect x="0" y="0" width="492" height="480" fill="#F3E0B2"/>
  <rect x="20" y="20" width="452" height="70" fill="#D2A673"/>
  <rect x="20" y="110" width="452" height="70" fill="#D2A673"/>
  <rect x="20" y="200" width="452" height="70" fill="#D2A673"/>
  <rect x="20" y="290" width="452" height="70" fill="#D2A673"/>
  <rect x="20" y="380" width="452" height="70" fill="#D2A673"/>
 
  <circle cx="46" cy="55" r="10" fill="#7A5B34"/>
  <circle cx="446" cy="55" r="10" fill="#7A5B34"/>
  <circle cx="46" cy="145" r="10" fill="#7A5B34"/>
  <circle cx="446" cy="145" r="10" fill="#7A5B34"/>
  <circle cx="46" cy="235" r="10" fill="#7A5B34"/>
  <circle cx="446" cy="235" r="10" fill="#7A5B34"/>
  <circle cx="46" cy="325" r="10" fill="#7A5B34"/>
  <circle cx="446" cy="325" r="10" fill="#7A5B34"/>
  <circle cx="46" cy="415" r="10" fill="#7A5B34"/>
  <circle cx="446" cy="415" r="10" fill="#7A5B34"/>
  <circle cx="46" cy="505" r="10" fill="#7A5B34"/>
  <circle cx="446" cy="505" r="10" fill="#7A5B34"/>
</svg>  
